<?xml version="1.0" encoding="utf-8"?>
<!-- Generator: Adobe Illustrator 23.0.3, SVG Export Plug-In . SVG Version: 6.00 Build 0)  -->
<svg version="1.1" id="Capa_1" xmlns="http://www.w3.org/2000/svg" xmlns:xlink="http://www.w3.org/1999/xlink" x="0px" y="0px"
	 viewBox="0 0 1200 1200" enable-background="new 0 0 1200 1200" xml:space="preserve">
<path fill="#CE181D" d="M870.051,509.855c0.301,0.769,3.581,12.406-1.185,7.518c-4.925-5.051-9.656-9.945-14.593-14.557
	c-3.497-3.252-7.078-6.342-10.715-9.345c3.384,4.099,6.445,8.462,9.069,13.076c3.098,5.606,5.74,11.472,7.229,17.774
	c0.219,0.938-0.034,1.969-0.762,2.703c-1.125,1.135-2.957,1.142-4.091,0.016c-4.453-4.419-8.391-8.886-12.467-13.18
	c-4.01-4.335-8.009-8.579-12.067-12.748l-8.021-8.119c0.673,2.49,1.674,5.11,3.103,7.855c5.091,9.776,10.182,19.553,15.273,29.33
	c3.253,6.246,7.645,13.291,14.663,13.88c4.053,0.34,8.208-1.918,10.126-5.505c1.153-2.154,1.443-4.709,0.956-7.1
	c3.026,3.79,8.719,5.611,13.164,3.444c1.306-0.637,2.395-1.578,3.269-2.697c13.171,37.802,14.021,78.372,1.666,117.204
	c-4.393,13.812-10.105,27.106-16.967,39.707c-1.104-4.995-2.447-8.701-3.797-6.716c-4.171,6.137-4.038,15.503-6.208,23.296
	c-0.996,1.509-2.007,3.006-3.037,4.49c-0.664-0.195-1.134-0.808-1.074-1.524c0.628-7.537,0.603-14.878-0.282-22.037
	c-0.247-2.025-0.575-4.03-0.95-6.023c-0.282,1.616-0.592,3.227-0.961,4.823c-1.628,7.109-4.021,14.042-7.539,20.408
	c-0.385,0.693-1.148,1.14-1.991,1.078c-1.156-0.085-2.024-1.091-1.939-2.247c0.518-7.036,1.046-13.823,1.227-20.576
	c0.117-4.774,0.058-9.503-0.104-14.218c-0.826,5.251-2.063,10.435-3.779,15.458c-2.145,6.036-4.786,11.902-8.516,17.194
	c-0.557,0.786-1.497,1.28-2.529,1.221c-1.595-0.091-2.815-1.458-2.724-3.053c0.357-6.263,1.092-12.172,1.606-18.071
	c0.588-5.876,1.115-11.683,1.546-17.485l0.762-11.387c-1.419,2.154-2.717,4.639-3.825,7.53c-2.857,7.451-5.714,14.903-8.57,22.354
	c0.108-1.169,0.263-2.326,0.348-3.5c0.834-11.517,0.605-23.247-0.667-35.11c1.116-0.003,2.218-0.413,2.995-1.304
	c2.989-3.422,11.3-15.589,10.335-26.222l-0.239-2.766c-0.195-2.366-0.353-4.286-0.69-6.139c5.459,3.345,9.779,7.47,13.825,14.094
	c0.978,1.601,2.945,2.309,4.707,1.689c1.772-0.615,2.875-2.379,2.652-4.24c-1.303-10.828-6.232-24.925-15.942-34.857
	c5.47,0.667,10.773,2.434,18.492,5.804c1.749,0.765,3.786,0.184,4.87-1.378c1.085-1.565,0.913-3.679-0.413-5.047
	c-24.729-25.52-53.996-38.843-82.934-45.001c17.133-21.54,31.163-44.546,41.934-68.762c11.538-2.508,23.902-2.048,35.962,0.926
	c0.108,0.937,0.448,1.858,1.071,2.655c5.17,6.625,9.708,14.509,13.322,22.399c0.175,0.382,0.348,0.764,0.52,1.148
	C866.91,501.914,868.494,505.88,870.051,509.855z M895.341,820.96c-4.135-3.399-7.109-4.913-12.112-6.437
	c-3.047-0.928-8.141-1.868-8.965-5.603c-1.003-4.557,3.667-7.105,7.205-8.503c1.576-0.623,13.34-2.387,13.517-3.959
	c0.522-4.624-9.386-7.633-12.502-8.978c-11.533-4.976-22.619-8.264-35.271-6.681c-12.69,1.588-24.613,7.072-35.576,13.425
	c-2.172,1.258-4.699,2.909-7.374,4.658c-9.594,6.271-21.793,14.222-33.355,14.525c-1.076,6.216-4.618,11.751-9.82,15.195
	c-6.637,4.28-15.006,4.649-21.783,1.259c-1.797-0.899-2.526-3.085-1.627-4.882c0.852-1.703,2.858-2.446,4.595-1.756l0.078,0.031
	c4.491,1.8,10.073,0.895,13.578-1.969c2.989-2.352,4.782-6.281,4.865-9.942c-0.684-0.322-1.369-0.639-2.039-1.046
	c-2.803-1.702-5.159-4.321-7.211-7.923c-11.903,4.225-24.935,7.858-39.643,11.074c1.572,12.636,2.57,18.585,8.979,30.915
	c7.602,14.626,21.012,24.273,34.164,24.577c0.244,0.008,0.493,0.01,0.737,0.01c12.901,0,24.022-7.831,35.784-16.113
	c10.742-7.564,21.847-15.384,35.039-17.538c2.19-0.358,4.222,1.121,4.577,3.29c0.123,0.754,0.015,1.487-0.255,2.146
	c0.375,3.787,2.608,21.245,9.589,18.163c2.457-1.084,3.172-4.165,3.577-6.82c0.648-4.244,1.295-8.488,1.943-12.732
	c0.2-1.311,0.476-2.756,1.531-3.56c1.4-1.067,3.557-0.396,4.681,0.958c2.254,2.716,10.339,22.14,16.848,15.706
	c2.29-2.265-1.265-7.929-2.027-10.356c-1.218-3.881-2.229-7.83-3.012-11.822c-0.234-1.191,0.086-2.421,0.867-3.347
	c0.784-0.924,1.912-1.531,3.155-1.409c6.223,0.176,12.446,0.522,18.628,1.27c2.393,0.29,14.728,3.585,11.16-3.112
	C897.281,822.578,896.303,821.75,895.341,820.96z M739.553,670.765c-3.304,2.668-6.74,5.255-10.421,7.689
	c1.081,0.534,2.154,1.093,3.199,1.723c6.866,4.137,12.189,9.935,15.616,16.757c2.771-2.857,4.589-6.693,4.909-10.636
	c0.353-4.367-0.74-8.14-3.166-10.911C747.31,672.663,743.8,671.09,739.553,670.765z M750.458,740.571
	c-1.445-0.501-2.839-1.162-4.146-1.985c-0.314-0.197-0.554-0.463-0.793-0.727c-0.136,0.216-0.245,0.442-0.385,0.656
	c-3.932,6.028-9.026,10.782-14.736,14.163c1.949,5.178,7.218,8.992,12.59,8.992c0.005,0,0.013,0,0.018,0
	c5.649-0.01,11.077-4.403,12.102-9.792C755.912,747.649,753.862,743.051,750.458,740.571z M602.534,736.268
	c-0.106,7.826,4.018,17.009,8.868,22.289c8.669,9.432,21.435,14.279,32.722,18.082l4.315,1.44
	c11.362,3.762,23.111,7.657,33.082,14.99c4.29,3.156,8.834,8.162,12.283,13.369c0.391-0.18,0.8-0.331,1.244-0.414
	c21.223-3.967,38.95-8.572,54.613-14.262c32.591-24.908,54.483-67.089,57.755-112.212c1.472-20.309-0.533-41.345-5.881-62.615
	c-2.752,10.933-9.201,20.877-18.348,27.682c-0.711,0.529-1.546,0.789-2.379,0.789c-1.012,0-2.021-0.387-2.792-1.142
	c-1.401-1.373-1.593-3.565-0.451-5.161c5.887-8.236,6.772-19.307,2.569-29.138c-0.633,0.332-1.289,0.618-1.941,0.911
	c-0.01,0.405-0.055,0.813-0.163,1.221c-5.391,20.331-15.81,37.722-31.039,52.167c3.415,1.259,6.398,3.24,8.701,5.874
	c3.874,4.429,5.641,10.239,5.109,16.801c-0.278,3.43-1.277,6.751-2.875,9.753c6.562,0.542,13.101,3.552,17.187,8.513
	c6.754,8.199,6.671,20.916-0.187,28.952c-3.467,4.063-8.456,6.583-13.692,7.359c1.772,3.638,2.473,7.807,1.705,11.85
	c-1.731,9.11-10.48,16.258-19.951,16.274c-4.305,0-8.487-1.432-11.998-3.879c-1.025,5.161-3.495,10.088-7.224,13.949
	c-4.328,4.481-9.74,6.821-15.467,6.821c-2.234,0-4.515-0.355-6.801-1.082c-6.705-2.128-11.798-7.286-13.975-14.151
	c-0.656-2.068-1.017-4.185-1.092-6.295c-6.72,3.166-14.761,3.438-22.083,0.189c-10.319-4.585-16.811-16.461-15.101-27.623
	c1.103-7.195,4.728-13.396,9.785-17.452c-3.818-2.288-6.92-5.775-8.884-10.098c-9.156,3.14-18.428,6.544-27.996,10.079
	c-6.598,2.438-17.642,4.425-19.288,12.799c-0.167,0.849-0.227,1.742-0.271,2.639C602.596,735.783,602.564,736.025,602.534,736.268z
	 M620.629,369.57c7.532,4.218,18.925,2.234,27.521,5.112c0.588,0.197,1.015,0.752,1.018,1.407c0.003,0.821-0.661,1.49-1.483,1.493
	c-7.563,0.025-14.874,0.685-21.93,2.184c-1.996,0.421-3.965,0.922-5.918,1.467c1.634,0.141,3.265,0.311,4.888,0.54
	c7.224,1.008,14.337,2.792,20.983,5.747c0.724,0.324,1.235,1.046,1.246,1.89c0.015,1.159-0.912,2.111-2.071,2.126
	c-7.054,0.093-13.861,0.152-20.604,0.555c-4.767,0.296-9.473,0.763-14.156,1.332c5.303,0.37,10.574,1.155,15.727,2.431
	c6.199,1.615,12.271,3.739,17.866,6.999c0.831,0.488,1.404,1.381,1.436,2.414c0.047,1.597-1.209,2.931-2.807,2.978
	c-6.27,0.186-12.22-0.036-18.142-0.039c-5.904-0.078-11.736-0.102-17.553-0.03l-11.41,0.224c2.269,1.228,4.857,2.306,7.833,3.16
	c10.594,3.042,21.189,6.083,31.784,9.126c6.769,1.943,14.902,3.611,20.161-1.072c3.038-2.704,4.262-7.272,2.983-11.133
	c-0.768-2.319-2.421-4.29-4.489-5.582c4.832,0.415,10.073-2.458,11.563-7.173c1.69-5.349-1.938-11.516-7.116-13.314
	c3.803-0.136,7.554-3.564,7.912-7.564c0.339-3.788-1.686-7.386-4.66-9.841c12.351,1.252,24.524,3.01,36.406,5.335
	c-0.667,5.784-1.536,11.445-2.609,16.97c-11.849,42.842-42.739,75.174-61.121,91.335c-2.747-4.048-7.351-7.085-12.438-8.148
	c-6.995-1.463-14.974-0.026-23.705,4.268c-3.631,1.787-7.055,4.967-10.775,6.37c-3.362,1.267-7.722,1.527-11.275,2.235
	c-8.298,1.652-16.637,3.094-24.946,4.688c-16.628,3.19-33.238,7.034-48.749,13.988c-1.797,0.806-3.67,1.649-5.552,2.536
	c0.636-0.577,1.251-1.179,1.813-1.838c6.86-8.036,6.941-20.755,0.189-28.949c-4.087-4.964-10.625-7.974-17.19-8.516
	c1.598-3.002,2.6-6.323,2.878-9.756c0.532-6.559-1.235-12.366-5.106-16.798c-3.866-4.421-9.613-7.052-16.186-7.403
	c-6.007-0.306-12.929,1.253-18.132,5.091c-1.928-5.828-6.116-10.921-11.736-13.599c-9.175-4.367-20.942-1.731-27.369,6.139
	c-3.921,4.803-5.537,11.157-4.813,17.226c-5.893-1.488-12.345-0.789-17.658,2.236c19.91-25.759,48.225-46.93,80.673-59.122
	c51.893-19.499,112.406-28.465,170.707-26.157C626.895,365.017,617.52,367.829,620.629,369.57z M557.694,424.41
	c3.799-0.221,7.473-3.731,7.743-7.737c0.338-5.021-3.451-9.628-8.055-11.661c-4.604-2.032-9.846-1.977-14.855-1.488
	c-0.511,0.05-27.478,6.19-22.433,8.869c7.623,4.05,18.969,1.816,27.627,4.504c0.592,0.184,1.031,0.729,1.048,1.384
	c0.021,0.822-0.628,1.504-1.449,1.525c-7.561,0.193-14.856,1.013-21.877,2.667c-1.986,0.465-3.943,1.009-5.884,1.597
	c1.637,0.105,3.272,0.239,4.899,0.433c7.244,0.848,14.395,2.475,21.105,5.283c0.731,0.307,1.257,1.018,1.287,1.862
	c0.041,1.159-0.865,2.13-2.023,2.171c-7.051,0.248-13.854,0.458-20.588,1.009c-4.759,0.401-9.454,0.972-14.123,1.644
	c5.309,0.253,10.597,0.921,15.776,2.083c6.232,1.478,12.35,3.468,18.016,6.604c0.841,0.468,1.435,1.349,1.488,2.382
	c0.082,1.596-1.144,2.956-2.74,3.038c-6.264,0.324-12.219,0.234-18.139,0.362c-5.905,0.053-11.735,0.157-17.55,0.357l-11.402,0.475
	c2.296,1.177,4.907,2.198,7.901,2.987c10.659,2.808,21.319,5.615,31.978,8.422c6.81,1.794,14.977,3.282,20.133-1.516
	c2.977-2.771,4.1-7.364,2.737-11.196c-0.819-2.302-2.516-4.235-4.612-5.482c4.84,0.309,10.016-2.679,11.402-7.426
	C566.674,432.178,562.911,426.093,557.694,424.41z M578.098,656.338c-0.352-0.182-0.711-0.345-1.057-0.541
	c-6.392-3.719-11.319-9.484-14.078-16.043c-2.795-6.515-3.538-13.961-1.537-20.623c0.46-1.532,2.074-2.401,3.606-1.941
	c1.215,0.365,2.013,1.456,2.062,2.656l0.003,0.101c0.22,5.664,1.799,10.985,4.447,15.625c2.674,4.602,6.373,8.533,10.786,11.006
	c4.363,2.561,9.624,3.769,14.945,3.755c0.059-0.001,0.118-0.012,0.178-0.012c9.199-3.185,18.144-6.724,26.69-10.575
	c27.465-12.373,53.12-27.578,76.431-45.202c-7.018,0.459-14.557,1.497-22.781,3.171c-7.2,1.466-14.504,3.274-21.565,5.023
	c-12.265,3.036-24.948,6.175-37.815,7.724c-9.883,1.196-24.445,1.99-36.712-4.857h-0.003c-9.874-5.511-16.569-15.52-20.64-27.269
	c-29.739,19.007-60.613,30.645-91.068,34.809c-0.147,3.926,0.35,7.776,1.481,11.402c1.625,5.067,4.394,9.7,8.175,13.062
	c3.712,3.437,8.591,5.745,13.793,6.872c5.23,1.089,10.779,0.954,16.235-0.582l0.093-0.026c1.54-0.433,3.139,0.464,3.572,2.003
	c0.344,1.221-0.154,2.482-1.141,3.167c-5.723,3.955-13.036,5.542-20.095,4.888c-7.089-0.605-14.091-3.516-19.598-8.452
	c-5.446-5.004-9.022-11.691-10.31-18.688c-0.807-4.214-0.791-8.597,0.085-12.75c-5.87,0.56-11.722,0.876-17.539,0.876
	c-24.033,0-47.51-4.805-69.655-14.439C421.977,670.748,505.696,676.27,578.098,656.338z M664.53,585.516
	c0.775-1.694,1.402-3.512,1.891-5.51c0.501-2.013,0.836-4.144,1.144-6.771l0.034-0.293c0.165-1.411,1.443-2.42,2.854-2.255
	c0.577,0.068,1.087,0.322,1.477,0.695c2.395,2.287,3.707,5.524,4.085,8.844c0.366,3.335-0.228,6.835-1.764,9.954
	c-0.031,0.063-0.074,0.118-0.106,0.181c0.687-0.145,1.371-0.317,2.058-0.457c25.293-5.153,44.93-4.824,61.803,1.043
	c0.898,0.311,1.655,0.934,2.133,1.754c3.835,6.565,10.234,11.238,17.561,12.823c7.413,1.598,15.55-0.067,21.741-4.458
	c0.913-0.65,2.055-0.876,3.149-0.644c6.439,1.367,4.367,16.039,7.004,21.106c6.23-4.484,9.351-12.885,7.56-20.348
	c6.872,4.669,12.191,11.582,14.942,19.421c0.704,2.007,1.72,4.471,3.843,4.596c1.289,0.076,2.47-0.865,3.05-2.018
	c0.58-1.154,0.674-2.484,0.706-3.775c0.124-5.066-0.623-10.027-1.98-14.897c-3.349-12.018,8.281-2.395,13.792,0.663
	c1.402,0.778,3.178,1.552,4.513,0.661c1.004-0.67,1.285-2.08,0.982-3.248c-0.303-1.168-1.067-2.153-1.812-3.102
	c-4.883-6.214-9.121-12.787-14.606-18.417c4.439,0.24,14.242-0.287,11.916-5.394c-1.532-3.364-8.144-6.265-11.116-8.024
	c-7.742-4.583-15.965-9.058-24.358-12.353c-14.868-5.837-30.576-9.365-46.446-11.019c-1.113-0.116-2.231-0.17-3.346-0.268
	c0.868,1.497,1.381,3.193,1.512,4.912c0.269,3.133-0.788,6.308-2.58,8.966c-1.806,2.667-4.373,4.678-7.205,5.775
	c-2.822,1.089-5.981,1.295-8.722,0.229c-0.765-0.297-1.144-1.159-0.847-1.925c0.103-0.263,0.271-0.48,0.48-0.641l0.104-0.078
	c2.021-1.54,3.489-2.972,4.721-4.415c1.223-1.434,2.159-2.86,2.869-4.264c0.725-1.412,1.178-2.906,1.899-4.532l1.816-4.506
	c-23.952-1.445-48.145,1.037-71.524,6.249c-1.508,0.337-3.137,0.75-4.849,1.183c-9.995,2.533-23.545,5.941-33.047-0.809
	c-0.391,1.452-0.933,2.873-1.623,4.215c-2.005,3.935-5.292,7.292-9.338,9.461c-4.046,2.165-8.614,3.083-12.974,2.655
	c-4.342-0.382-8.584-1.999-11.69-4.898c-1.368-1.277-1.441-3.421-0.164-4.789c0.744-0.797,1.783-1.154,2.79-1.062l0.372,0.037
	c3.107,0.306,5.89,0.233,8.526-0.256c2.618-0.532,5.026-1.369,7.093-2.595c2.068-1.22,3.965-2.849,5.745-4.778
	c1.779-1.957,3.327-4.192,4.907-6.963l0.046-0.081c-4.417-12.975-1.212-34.737,2.893-52.616c0.402-1.754,0.062-3.495-1.012-5.171
	c-1.557-2.434-4.476-4.354-7.618-5.013c-5.221-1.085-11.461,0.13-18.557,3.62c-14.842,7.304-26.728,20.363-32.608,35.825
	c-9.027,23.734-5.893,68.16,16.936,80.903c7.789,4.346,17.916,5.581,31.873,3.902c12.382-1.489,24.823-4.569,36.852-7.548
	c1.498-0.371,3.038-0.738,4.555-1.11c1.012-1.136,1.897-2.213,2.677-3.299C662.775,588.891,663.753,587.209,664.53,585.516z
	 M768.865,728.985c4.349-5.099,4.393-13.492,0.096-18.71c-3.98-4.832-12.042-6.896-17.895-4.925c0.048,0.198,0.12,0.386,0.165,0.584
	c1.947,8.5,1.105,17.278-2.299,25.386c0.191,0.025,0.38-0.001,0.571,0.053c1.559,0.436,3.031,1.092,4.393,1.93
	C759.101,734.758,765.333,733.119,768.865,728.985z M561.047,971.649c5.732,1.63,12.237,3.173,19.12,4.811
	c25.065,5.962,63.989,12.365,75.674,39.502c5.48,12.722,2.997,28.274-7.382,46.222c-6.417,11.098-16.136,20.379-27.462,26.572
	c14.193,1.149,28.757-2.506,40.54-10.628c25.449-17.535,35.846-56.092,23.181-85.952c-12.229-28.839-37.72-41.055-64.732-53.944
	c-0.243,1.193-0.667,2.347-1.368,3.378c-2.778,4.091-8.622,5.343-13.132,3.561c1.611,1.831,2.631,4.192,2.702,6.635
	c0.119,4.065-2.361,8.091-6.046,9.812c-6.381,2.98-13.695-0.946-19.624-4.747c-9.279-5.949-18.559-11.897-27.839-17.846
	c-2.607-1.671-4.777-3.445-6.6-5.271l10.997,3.053c5.594,1.598,11.174,3.291,16.809,5.056c5.673,1.698,11.311,3.614,17.372,5.233
	c1.544,0.412,3.129-0.506,3.542-2.049c0.267-1-0.028-2.02-0.684-2.724c-4.427-4.726-9.636-8.5-15.113-11.823
	c-4.571-2.697-9.397-4.959-14.371-6.832c4.65,0.796,9.293,1.695,13.945,2.777c6.577,1.545,13.116,3.437,19.901,5.37
	c1.114,0.317,2.276-0.33,2.593-1.444c0.039-0.136,0.043-0.272,0.054-0.407c-10.599-5.455-20.961-11.543-30.162-19.307
	c-11.611-9.803-19.159-21.982-21.253-34.297c-3.513-20.67,6.449-36.559,29.595-47.244c-0.503-2.651-0.928-5.315-1.181-7.992
	c-12.128,2.12-24.24-0.932-34.522-8.827c-13.339-10.246-21.424-27.081-21.095-43.936c0.023-1.177,0.087-2.355,0.182-3.533
	c-19.768,16.424-33.963,35.904-42.076,57.422l0.02,0.364c0.28,5.812,0.464,11.639,0.598,17.543c0.21,5.918,0.2,11.873,0.61,18.132
	c0.104,1.594,1.482,2.802,3.076,2.698c1.032-0.067,1.905-0.673,2.362-1.521c3.057-5.707,4.963-11.852,6.355-18.105
	c1.09-5.195,1.686-10.491,1.866-15.803c0.736,4.659,1.373,9.345,1.838,14.099c0.644,6.725,0.947,13.525,1.292,20.571
	c0.056,1.158,1.041,2.05,2.198,1.993c0.844-0.041,1.547-0.577,1.845-1.312c2.715-6.747,4.244-13.921,4.993-21.175
	c0.171-1.629,0.282-3.266,0.365-4.904c0.614,1.932,1.185,3.882,1.677,5.861c1.75,6.998,2.671,14.281,2.967,21.838
	c0.032,0.821,0.724,1.461,1.545,1.428c0.654-0.025,1.194-0.472,1.369-1.067c2.569-8.693,0.179-20.008,4.124-27.686
	c2.61-5.08,9.12,21.799,9.177,22.309c0.558,5.003,0.685,10.242-1.284,14.874c-1.969,4.632-6.522,8.483-11.548,8.214
	c-4.009-0.215-7.57-3.839-7.842-7.635c-1.611,5.239-7.644,9.085-13.051,7.588c-4.766-1.32-7.824-6.455-7.582-11.299
	c-1.218,2.113-3.129,3.836-5.418,4.687c-3.078,1.143-6.659,0.65-9.41-1.12c0.139,3.031,0.375,6.081,0.721,9.15
	C482.093,940.723,531.929,963.375,561.047,971.649z M728.8,962.096c-18.526-19.484-49.141-26.467-74.609-18.049
	c16.72,10.168,31.513,23.231,40.31,43.978c14.536,34.263,2.452,78.609-26.933,98.853c-12.135,8.363-26.793,12.701-41.448,12.701
	c-8.521,0-17.039-1.466-25.067-4.458l-16.264-6.061l16.868-4.084c15.542-3.76,29.598-14.268,37.602-28.111
	c8.607-14.883,10.9-27.229,6.821-36.699c-3.015-7.002-9.437-12.492-17.661-16.964c6.415,8.868,9.982,20.004,5.217,33.578
	c-5.446,15.516-15.073,21.134-22.187,23.114c-16.209,4.51-35.272-4.847-47.696-15.114c-2.071-1.71-4.133-3.381-6.191-4.946
	c1.65,5.95,1.386,12.109-0.994,17.128c-2.013,4.242-7.4,11.435-20.877,11.956c-11.591,0.475-23.531-6.061-31.681-17.434
	c-2.558-3.57-4.645-7.403-6.414-11.334c0.395,14.094,5.799,27.234,14.887,37.76c4.415,5.113,8.224,10.307,13.511,14.642
	c2.408,1.975,13.367,11.255,16.587,10.052c-13.833,5.169-28.63,2.505-41.581-3.871c13.716,21.52,35.441,37.859,60.213,44.481
	c35.437,9.482,76.084-1.738,103.259-25.944c-3.175,10.91-6.351,21.821-9.525,32.731c0.248-0.794,6.653-3.204,7.827-3.934
	c2.993-1.862,5.907-3.792,8.622-6.048c5.451-4.531,10.142-9.973,13.897-15.982c7.181-11.492,13.217-23.13,13.27-37.076
	c-0.018,4.832,8.776,10.149,12.496,11.573c6.552,2.508,12.927,5.057,20.128,5.057c0.073,0,0.143,0,0.215-0.003
	c-0.239-0.257-0.47-0.524-0.695-0.799c-8.046-9.811-5.013-26.219-1.536-40.828c0.63-2.657,1.308-5.317,1.988-7.974
	c5.665-22.14,10.385-48.684-5.385-67.947c7.116,1.808,12.274,3.771,18.322,8.035c2.447,1.725,4.756,3.355,7.037,4.484
	c2.61,1.29,5.293,2.421,8.031,3.389c-5.667-6.105-10.475-13.116-15.205-20.008C739.233,975.054,734.347,967.931,728.8,962.096z
	 M568.502,739.445c-1.513-1.301-1.685-3.582-0.385-5.095c1.202-1.399,3.242-1.652,4.739-0.655l0.069,0.046
	c3.159,2.099,7.124,2.929,10.881,2.546c3.762-0.369,7.291-1.977,9.629-4.382c0.614-0.632,1.353-1.056,2.136-1.318
	c1.135-5.758,3.912-10.511,8.168-13.923c0.605-0.917,1.484-1.664,2.595-2.07c4.097-1.495,8.137-2.989,12.133-4.466
	c10.112-3.736,19.901-7.319,29.609-10.621c0.022-0.494,0.07-0.985,0.123-1.477c-11.28-0.294-23.943,0.559-38.3,2.625
	c-21.23,3.059-38.778,9.997-52.159,20.623c-12.883,10.231-21.566,24.173-24.32,38.523c0.172,0.128,0.35,0.244,0.509,0.395
	c0.147,0.14,0.287,0.29,0.414,0.442c2.573,3.077,6.86,5.12,11.112,5.126c4.253,0.046,8.8-1.968,11.736-5.373l0.045-0.053
	c1.336-1.549,3.675-1.722,5.224-0.387c1.457,1.256,1.687,3.412,0.6,4.952c-3.901,5.485-10.149,9.175-17.092,9.862
	c-4.602,0.426-9.253-0.51-13.398-2.621c0.831,13.121,7.469,25.832,17.883,33.83c9.567,7.348,21.014,9.611,32.231,6.383
	c1.181-0.343,2.447-0.119,3.441,0.602c0.994,0.719,1.601,1.855,1.645,3.08c0.276,7.67,1.162,16.126,3.729,23.381
	c0.819,2.314,2.306,6.666,5.622,5.254c3.825-1.628,4.939-16.202,6.046-20.078c0.488-1.707,2.05-2.883,3.83-2.885
	c1.772,0,3.334,1.173,3.827,2.875c2.13,7.343,8.332,20.516,11.64,24.73c2.555,3.251,7.561,7.852,8.298,1.08
	c0.364-3.343-1.278-6.819-1.95-10.031c-1.396-6.663-2.256-13.44-2.547-20.242c-0.057-1.354,0.576-2.644,1.681-3.425
	c1.111-0.784,2.535-0.945,3.791-0.444c3.142,1.266,8.83,5.656,14.382,10.042c0.887,0.701,1.559,1.235,1.904,1.487
	c3.387,2.47,6.249,5.76,8.448,9.319c1.611,2.608,5.109,8.331,7.567,3.537c2.342-4.568-0.647-15.645-1.607-20.383
	c-0.298-1.471,0.254-2.983,1.429-3.914c3.768-2.989,15.003,3.241,19.001,4.596c1.553,0.526,3.203,1.059,4.805,0.704
	c3.313-0.735,3.14-4.251,1.941-6.628c-2.88-5.711-8.15-12.094-12.813-15.527c-8.954-6.583-20.093-10.275-30.867-13.843l-4.357-1.45
	c-13.121-4.424-26.57-9.938-36.043-20.246c-5.095-5.545-8.623-13.366-9.933-21.114c-3.693,1.703-7.689,2.47-11.568,2.373
	C578.403,745.068,572.801,743.139,568.502,739.445z M668.581,723.819c-5.812,1.985-10.348,7.735-11.457,14.962
	c-1.165,7.602,3.43,16.007,10.462,19.128c7.741,3.445,16.25,1.41,21.369-4.695c-0.161-0.094-0.326-0.174-0.487-0.271
	c-9.72-5.856-16.575-15.148-19.305-26.162C668.919,725.796,668.754,724.807,668.581,723.819z M667.953,715.019
	c0.133-3.83,0.808-7.608,1.973-11.268c-4.043,1.17-8.095,2.409-12.154,3.731C659.899,711.607,663.59,714.334,667.953,715.019z
	 M696.436,756.606c-0.065,0.092-0.121,0.195-0.187,0.285c-1.985,3.586-2.418,7.935-1.129,11.998
	c1.383,4.362,4.587,7.631,8.791,8.965c7.032,2.234,11.866-1.349,14.12-3.679c4.548-4.71,6.456-11.882,4.999-18.023
	c-4.534,1.632-9.284,2.494-14.05,2.494C704.758,758.645,700.529,757.969,696.436,756.606z M676.901,724.86
	c2.218,8.949,7.787,16.497,15.682,21.256v0.003c15.324,9.232,35.475,3.985,45.872-11.956c3.844-5.893,5.806-12.474,5.811-19.074
	c-0.513-0.334-0.966-0.776-1.292-1.343c-4.382-7.652-11.24-13.124-18.817-15.008c-7.968-1.993-16.692,0.413-21.718,5.965
	c-3.56,3.934-5.246,9.421-4.398,14.325c0.864,4.99,4.473,9.421,8.985,11.03c3.153,1.121,6.863,0.848,9.909-0.74
	c1.772-0.924,4.066-2.691,4.93-5.859c0.706-2.577-0.091-5.42-1.889-6.759c-0.812-0.605-2.016-0.851-3.147-0.664
	c-0.519,0.091-1.469,0.358-1.993,1.142c-1.225,1.832-3.697,2.314-5.529,1.098c-1.829-1.222-2.32-3.697-1.098-5.529
	c1.614-2.413,4.193-4.035,7.265-4.564c3.306-0.568,6.679,0.202,9.26,2.125c4.398,3.275,6.38,9.546,4.821,15.254
	c-1.269,4.634-4.44,8.479-8.931,10.822c-2.942,1.536-6.269,2.317-9.574,2.317c-2.289,0-4.567-0.374-6.699-1.134
	c-7.25-2.584-12.807-9.328-14.164-17.182c-1.274-7.372,1.095-15.236,6.341-21.033c7.052-7.787,18.653-11.074,29.554-8.35
	c4.604,1.144,8.966,3.321,12.878,6.287c-2.697-4.093-6.315-7.617-10.745-10.285c-2.389-1.44-4.909-2.554-7.503-3.372
	c-11.941,6.822-25.649,12.534-40.992,17.193C675.901,708.245,674.873,716.683,676.901,724.86z M638.979,516.646
	c-2.245,2.453-4.748,6.529-7.737,8.023c0.006,5.469-0.138,14.679,4.637,18.57c6.419,5.226,17.87,2.327,27.073-0.005
	c1.79-0.451,3.495-0.885,5.073-1.235c0.075-0.017,0.157-0.033,0.233-0.05c-0.837-0.317-1.664-0.667-2.477-1.054
	c-6.638-3.262-11.956-8.667-15.169-15.016c-2.974-5.774-4.255-12.444-3.279-18.74C644.613,510.364,641.827,513.534,638.979,516.646z
	 M461.784,502.748c3.844-5.892,5.808-12.473,5.813-19.073c-0.513-0.334-0.965-0.776-1.291-1.345
	c-4.385-7.654-11.243-13.124-18.819-15.008c-7.963-1.985-16.689,0.413-21.715,5.965c-3.56,3.934-5.246,9.424-4.398,14.328
	c0.861,4.987,4.473,9.419,8.985,11.027c3.153,1.118,6.863,0.848,9.909-0.74c1.772-0.924,4.066-2.691,4.93-5.859
	c0.706-2.577-0.091-5.42-1.889-6.759c-0.812-0.607-2.024-0.851-3.147-0.664c-0.519,0.091-1.471,0.358-1.993,1.139
	c-1.227,1.832-3.703,2.317-5.529,1.098c-1.829-1.225-2.32-3.7-1.098-5.529c1.614-2.413,4.196-4.032,7.265-4.561
	c3.308-0.568,6.679,0.202,9.26,2.125c4.398,3.275,6.38,9.546,4.821,15.254c-1.269,4.634-4.44,8.479-8.931,10.822
	c-2.942,1.536-6.269,2.317-9.574,2.317c-2.289,0-4.567-0.374-6.699-1.134c-7.247-2.584-12.807-9.328-14.167-17.18
	c-1.271-7.377,1.1-15.239,6.344-21.035c7.052-7.787,18.656-11.074,29.551-8.35c4.604,1.145,8.967,3.321,12.88,6.288
	c-2.698-4.094-6.315-7.621-10.745-10.292c-16.295-9.818-37.55-4.559-47.374,11.744c-9.824,16.297-4.559,37.551,11.738,47.377v-0.003
	C431.237,523.939,451.387,518.69,461.784,502.748z M447.332,444.914c2.873,0.977,5.669,2.241,8.331,3.844
	c6.864,4.141,12.187,9.94,15.614,16.761c2.77-2.857,4.589-6.691,4.91-10.638c0.353-4.364-0.739-8.137-3.163-10.908
	c-2.473-2.828-6.142-4.45-10.61-4.689C456.939,438.974,450.716,440.872,447.332,444.914z M379.984,473.389
	c1.749,5.629,6.015,9.415,11.317,10.226c0.239-6.986,2.188-14.004,6.044-20.403c1.655-2.745,3.61-5.233,5.774-7.492
	c-4.912-2.977-11.643-3.166-16.513-0.131C380.895,459.147,377.986,466.965,379.984,473.389z M492.194,497.572
	c4.351-5.099,4.395-13.492,0.099-18.708c-3.984-4.836-12.045-6.899-17.897-4.928c0.049,0.199,0.121,0.389,0.167,0.59
	c1.945,8.499,1.103,17.275-2.302,25.38c0.192,0.025,0.381-0.001,0.573,0.053c1.559,0.436,3.031,1.092,4.393,1.93
	C482.43,503.332,488.663,501.705,492.194,497.572z M429.543,430.013c-5.854-2.797-13.661-1.04-17.763,3.98
	c-3.539,4.335-4.125,10.869-1.722,15.907c4.056-2.721,8.571-4.783,13.453-5.992c4.76-1.181,9.59-1.478,14.331-1.021
	C437.569,437.56,434.361,432.307,429.543,430.013z M390.915,526.495c7.746,3.434,16.252,1.405,21.369-4.693
	c-0.161-0.094-0.326-0.174-0.487-0.271v-0.003c-10.965-6.61-17.837-17.43-19.873-29.153c-6.366,2.176-10.52,8.798-11.469,14.988
	C379.291,514.969,383.886,523.373,390.915,526.495z M817.113,386.801c0.045,1.888,0.15,3.779,0.147,5.667l-0.226,5.662
	l-0.463,11.329l-1.264,11.265l-0.636,5.635l-1.048,5.568l-2.091,11.145l-2.939,10.946l-1.467,5.477l-1.899,5.337l-0.516,1.453
	c-11.095,25.014-25.779,48.715-43.904,70.783c-0.115,0.14-0.196,0.294-0.294,0.442c-20.817-3.099-41.103-2.804-59.026-0.961
	c1.225-1.052,2.366-2.195,3.378-3.448c0.753-0.935,0.875-2.286,0.2-3.36c-0.85-1.354-2.638-1.763-3.993-0.913l-0.082,0.051
	c-4.8,3.014-10.086,4.711-15.41,5.143c-5.308,0.387-10.64-0.448-15.172-2.697c-4.576-2.157-8.541-5.819-11.532-10.222
	c-2.966-4.443-4.916-9.64-5.532-15.275l-0.01-0.101c-0.132-1.194-1.005-2.227-2.243-2.505c-0.171-0.039-0.335-0.004-0.505-0.012
	c18.935-23.239,37.626-53.233,48.782-89.554c1.256,3.626,3.184,7.058,5.645,10.044c4.486,5.522,10.832,9.676,18.01,11.454
	c7.2,1.69,14.74,0.887,21.251-1.982c6.508-2.813,12.164-7.713,15.289-13.927c0.538-1.074,0.37-2.42-0.518-3.326
	c-1.118-1.143-2.952-1.163-4.095-0.045l-0.069,0.067c-4.052,3.964-8.856,6.745-13.967,8.297c-5.105,1.506-10.493,1.82-15.399,0.584
	c-4.929-1.137-9.582-3.874-13.438-7.542c-3.841-3.712-6.85-8.377-8.648-13.753l-0.031-0.097c-0.161-0.476-0.462-0.877-0.828-1.207
	c1.003-3.965,1.903-8.007,2.713-12.111c4.918-18.164,6.294-36.631,3.995-55.007c0.966-2.073,1.729-4.235,2.171-6.461
	c3.508,2.444,7.691,3.876,11.993,3.876c0.01,0,0.023,0,0.034,0c9.44-0.013,18.189-7.161,19.922-16.277
	c0.768-4.04,0.065-8.207-1.707-11.845c5.236-0.776,10.226-3.295,13.692-7.359c6.86-8.036,6.941-20.755,0.187-28.952
	c-4.087-4.961-10.625-7.971-17.187-8.513c1.598-3.002,2.6-6.326,2.878-9.756c0.532-6.559-1.235-12.369-5.109-16.801
	c-3.866-4.421-9.613-7.05-16.183-7.4c-6.022-0.319-12.932,1.256-18.132,5.093c-1.928-5.833-6.118-10.924-11.738-13.604
	c-9.175-4.362-20.937-1.731-27.366,6.139c-3.921,4.8-5.537,11.157-4.813,17.229c-3.978-1.004-8.211-1.009-12.178,0.013
	c-2.065-1.044-4.153-2.025-6.258-2.957c1.458-2.493,2.623-5.18,3.4-8.018c1.868-7.156,1.252-14.714-1.456-21.294
	c-2.651-6.575-7.409-12.351-13.544-15.629c-1.061-0.564-2.409-0.429-3.337,0.435c-1.171,1.09-1.236,2.923-0.147,4.093l0.066,0.071
	c3.862,4.148,6.523,9.02,7.948,14.168c1.379,5.14,1.56,10.534,0.203,15.408c-0.611,2.38-1.611,4.68-2.895,6.852
	c-29.309-10.508-60.756-11.652-83.561-10.455c-12.393,0.655-24.792,2.088-37.102,4.217c-0.917-3.688-2.51-7.16-4.648-10.16
	c-3.871-5.518-9.492-9.687-15.719-11.483c-1.097-0.314-2.324,0.075-3.021,1.059c-0.88,1.245-0.585,2.969,0.66,3.85l0.075,0.053
	c4.405,3.116,7.928,6.995,10.3,11.379c1.216,2.287,2.115,4.702,2.635,7.137c-28.858,5.906-57.054,15.754-83.243,29.234
	c-2.146,1.107-4.179,2.206-6.162,3.307c-1.333-0.013-2.665,0.057-3.993,0.176c2.651-5.359,5.139-10.118,8.358-14.886
	c4.008-6.049,8.766-11.674,13.802-17.052c10.152-10.714,21.862-20.182,34.28-28.65c12.44-8.423,25.598-16.155,39.103-22.498
	c14.308-6.669,29.324-11.865,44.7-15.385c1.538,0.772,3.025,1.615,4.39,2.61c3.985,2.951,7.157,6.805,8.665,11.149
	c1.605,4.312,1.662,9.321,0.531,14.176c-1.168,4.871-3.55,9.555-6.958,13.749l-0.062,0.075c-0.719,0.889-0.836,2.17-0.198,3.196
	c0.805,1.295,2.508,1.692,3.803,0.887c5.496-3.416,9.782-8.897,12.096-15.2c2.359-6.283,2.698-13.584,0.316-20.326
	c-1.903-5.219-5.344-9.633-9.538-12.883c9.574-1.568,19.248-2.481,28.947-2.659c29.917-0.498,59.991,5.042,87.825,16.205
	c27.859,11.07,53.584,27.708,74.773,48.943c21.002,21.309,37.778,46.983,48.627,75.113c5.641,13.519,9.393,27.739,12.626,42.025
	c-1.941,4.871-4.851,9.116-8.508,12.49c-3.941,3.577-8.655,6.207-13.609,7.229c-4.933,1.122-10.313,0.682-15.381-0.941
	c-5.075-1.67-9.813-4.561-13.772-8.618l-0.07-0.073c-0.84-0.858-2.164-1.133-3.31-0.59c-1.445,0.685-2.061,2.412-1.376,3.857
	c2.98,6.286,8.521,11.315,14.962,14.277c6.443,3.02,13.963,3.996,21.2,2.474c7.218-1.613,13.657-5.618,18.27-11.035
	c1.516-1.755,2.831-3.683,3.947-5.711c0.267,1.554,0.572,3.103,0.731,4.67l0.564,5.636c0.356,3.759,0.802,7.514,1.089,11.28
	L817.113,386.801z M775.501,488.945c-1.119-1.143-2.952-1.163-4.095-0.045l-0.069,0.067c-4.051,3.964-8.856,6.745-13.967,8.297
	c-5.104,1.506-10.492,1.82-15.398,0.584c-4.93-1.137-9.582-3.874-13.439-7.542c-3.841-3.712-6.849-8.377-8.648-13.753l-0.032-0.097
	c-0.383-1.138-1.455-1.962-2.723-1.972c-1.6-0.012-2.906,1.275-2.918,2.874c-0.053,6.956,2.747,13.895,7.256,19.366
	c4.487,5.522,10.832,9.676,18.01,11.454c7.2,1.69,14.741,0.887,21.252-1.982c6.508-2.813,12.163-7.713,15.288-13.927
	C776.556,491.197,776.388,489.852,775.501,488.945z M1006.019,546.988c-5.72-31.509-26.384-61.409-57.297-83.591
	c-1.062,1.604-2.323,3.069-3.72,4.355c-2.235,2.02-4.809,3.631-7.585,4.691c-2.79,1.009-5.77,1.519-8.665,1.149
	c-1.563-0.199-2.668-1.628-2.468-3.19c0.114-0.888,0.624-1.628,1.33-2.065l0.22-0.135c1.954-1.195,3.664-2.378,5.177-3.745
	c1.53-1.316,2.883-2.758,4.043-4.293c0.798-1.026,1.474-2.098,2.133-3.174c-0.415-0.259-0.809-0.535-1.227-0.791
	c-17.325-10.635-36.038-18.486-55.139-24.814c-0.048,0.189-0.085,0.38-0.138,0.568c-1.173,4.106-3.527,7.939-6.758,10.919
	c-3.227,2.984-7.235,5.027-11.421,5.87c-4.176,0.816-8.603,0.513-12.356-1.551c-0.729-0.401-0.994-1.316-0.594-2.044
	c0.136-0.247,0.331-0.44,0.557-0.573l0.068-0.039c3.406-1.98,6.14-3.619,8.643-5.37c2.492-1.724,4.696-3.487,6.728-5.361
	c1.821-1.685,3.56-3.546,5.284-5.601c-13.523-4.105-27.155-7.554-40.551-10.776c-1.213,5.228-2.569,10.438-4.086,15.62
	c-2.885,9.857-6.276,19.55-10.156,29.068c29.723-4.268,63.292,8.225,85.224,32.175c0.54,0.589,0.89,1.328,1.004,2.122
	c1.264,8.744,13.233,17.548,22.929,16.759c1.131-0.086,2.234,0.304,3.057,1.082c0.817,0.778,1.269,1.868,1.238,2.997
	c-0.484,18.283-3.705,35.944-9.303,51.775c0.087,0.074,0.156,0.163,0.254,0.226c0.926,0.599,2.125,0.568,3.012-0.083
	c9.751-7.122,16.746-15.42,21.531-25.646c0.69,8.347,0.07,16.821-1.855,24.951c-0.236,0.994,0.119,2.034,0.911,2.678
	c0.483,0.389,1.077,0.592,1.674,0.592c0.387,0,0.773-0.083,1.134-0.254c8.202-3.874,14.862-10.918,18.269-19.325
	c1.27-3.135,2.082-6.449,2.436-9.813c-0.328,3.113,2.113,8.148,2.573,11.403c0.339,2.393-0.549,9.81,2.767,10.292
	c4.38,0.638,6.616-11.284,7.242-14.205c1.392-6.498,1.578-13.258,0.511-19.818c7.447,4.792,13.889,11.331,18.49,18.83
	c0.669,1.09,2.024,1.541,3.212,1.095C1005.547,549.49,1006.248,548.247,1006.019,546.988z M814.056,754.688
	c5.611-4.698,10.989-9.676,16.112-14.902c2.566-2.618,5.069-5.299,7.506-8.039c0.264-0.297,5.293-6.633,4.643-7.076
	c-0.022-0.015-0.05-0.023-0.084-0.024c-2.782-0.099-5.392,0.938-8.225-0.235c-4.569-1.892-6.978-7.362-6.148-12.14
	c-1.467,1.949-3.573,3.426-5.95,3.991c-3.957,0.94-8.402-0.674-10.833-3.934c-0.292-0.391-0.545-0.796-0.776-1.208
	c-6.936,27.254-20.175,51.828-38.28,71.114c1.747-0.867,3.48-1.746,5.187-2.655C790.318,772.602,802.671,764.22,814.056,754.688z
	 M557.43,568.062c0.23-0.15,0.472-0.26,0.715-0.37c-2.029-9.866-2.519-20.32-1.729-30.032
	c-16.103,6.081-34.119,11.181-49.367,11.181c-12.346,0-22.859-3.337-29.042-12.187c-0.379-0.543-0.688-1.072-0.993-1.601
	c-3.167,1.988-6.853,3.169-10.66,3.176c-0.013,0-0.023,0-0.034,0c-4.305,0-8.487-1.432-11.998-3.879
	c-1.025,5.161-3.495,10.088-7.224,13.949c-4.328,4.481-9.741,6.821-15.467,6.821c-2.234,0-4.515-0.355-6.801-1.082
	c-6.705-2.128-11.798-7.286-13.975-14.151c-0.656-2.068-1.017-4.188-1.092-6.297c-6.715,3.168-14.753,3.446-22.083,0.192
	c-10.319-4.585-16.811-16.461-15.101-27.626c1.103-7.195,4.728-13.394,9.785-17.449c-4.629-2.774-8.233-7.289-9.992-12.95
	c-1.06-3.411-1.223-7.02-0.645-10.513c-5.113,8.709-9.342,17.768-12.435,27.083c-10.296,31.011-8.093,62.379,6.207,91.605
	C423.358,615.712,493.159,609.996,557.43,568.062z M466.32,530.257c0.005,0,0.013,0,0.018,0c3.077-0.006,6.061-1.338,8.331-3.397
	c0.003-1.436,0.204-2.719,0.499-3.782c0.627-2.266,1.785-4.313,3.289-6.194c-0.487-3.054-2.215-5.941-4.667-7.727
	c-1.445-0.501-2.839-1.162-4.146-1.985c-0.315-0.199-0.557-0.464-0.796-0.73c-0.137,0.217-0.246,0.444-0.387,0.66
	c-3.931,6.027-9.022,10.78-14.732,14.161C455.677,526.442,460.947,530.257,466.32,530.257z M700.434,279.583
	c-0.81-0.602-2.003-0.848-3.145-0.664c-0.519,0.091-1.471,0.358-1.995,1.142c-0.93,1.384-2.568,1.997-4.101,1.689
	c2.058,3.354,3.974,6.902,5.752,10.632c0.146-0.069,0.307-0.103,0.45-0.178c1.772-0.924,4.066-2.691,4.93-5.859
	C703.019,283.81,702.207,280.901,700.434,279.583z M682.554,245.943c-5.842,1.448-11.07,4.347-15.332,8.368
	c3.225,2.621,6.332,5.451,9.304,8.5c0.16-0.187,0.297-0.389,0.462-0.573c7.052-7.789,18.646-11.077,29.551-8.352
	c4.604,1.146,8.968,3.324,12.881,6.292c-2.698-4.096-6.316-7.622-10.746-10.293c-5.449-3.282-11.554-4.966-17.756-4.966
	C688.133,244.918,685.328,245.258,682.554,245.943z M723.444,324.554c0.005,0,0.013,0,0.018,0
	c5.651-0.008,11.079-4.401,12.104-9.792c0.802-4.229-1.248-8.827-4.652-11.308c-1.445-0.503-2.839-1.162-4.146-1.985
	c-0.313-0.198-0.553-0.463-0.791-0.727c-0.136,0.217-0.246,0.444-0.387,0.66c-3.932,6.026-9.024,10.778-14.734,14.159
	C712.801,320.74,718.07,324.554,723.444,324.554z M686.667,224.311c-5.859-2.792-13.661-1.038-17.761,3.983
	c-3.539,4.333-4.125,10.865-1.722,15.906c4.056-2.721,8.572-4.783,13.455-5.992c4.759-1.179,9.587-1.478,14.329-1.02
	C694.695,231.861,691.485,226.607,686.667,224.311z M703.891,310.259c5.865-2.772,11.128-7.242,15.023-13.211
	c3.841-5.893,5.803-12.473,5.809-19.073c-0.512-0.334-0.963-0.775-1.289-1.342c-4.385-7.654-11.243-13.127-18.819-15.016
	c-7.963-1.975-16.689,0.415-21.715,5.97c-0.355,0.392-0.677,0.81-0.994,1.231c2.159,2.578,4.234,5.281,6.199,8.142
	c0.105-0.462,0.283-0.915,0.562-1.332c1.617-2.416,4.198-4.035,7.27-4.564c3.308-0.568,6.679,0.205,9.255,2.125
	c4.401,3.275,6.383,9.548,4.824,15.257c-1.269,4.637-4.44,8.479-8.936,10.825c-0.305,0.16-0.63,0.276-0.944,0.419
	c0.41,1.027,0.847,2.018,1.235,3.071C702.29,305.254,703.113,307.755,703.891,310.259z M660.748,467.295
	c-2.737,2.976-5.548,5.883-8.427,8.723c-2.955,2.916-5.98,5.761-9.069,8.535c-1.094,0.982-2.631,2.1-4.056,3.317
	c-1.468,1.254-2.817,2.612-3.436,4.033c-0.609,1.398-0.672,3.482-0.976,4.996c-0.388,1.93-0.752,3.865-1.089,5.804
	c-0.174,1.004-0.127,4.078-0.776,4.8c12.055-13.404,24.536-29.727,35.376-48.816C666.53,461.797,663.164,464.669,660.748,467.295z
	 M749.321,291.872c4.351-5.099,4.395-13.492,0.096-18.708c-3.982-4.837-12.05-6.914-17.896-4.931
	c0.049,0.199,0.121,0.388,0.167,0.588c1.947,8.499,1.105,17.276-2.298,25.384c0.193,0.025,0.384,0,0.575,0.055
	c1.557,0.433,3.028,1.09,4.388,1.928C739.557,297.637,745.79,296.005,749.321,291.872z M419.768,525.192
	c-0.066,0.093-0.121,0.194-0.187,0.285c-1.985,3.586-2.418,7.935-1.129,11.998c1.383,4.362,4.587,7.631,8.791,8.965
	c7.034,2.229,11.866-1.347,14.12-3.679c4.548-4.711,6.456-11.884,4.999-18.026c-4.534,1.632-9.285,2.494-14.052,2.494
	C428.088,527.229,423.859,526.553,419.768,525.192z M719.542,233.584c-5.485-0.302-11.702,1.593-15.083,5.629
	c2.874,0.977,5.671,2.241,8.332,3.844c6.864,4.139,12.187,9.938,15.614,16.761c2.771-2.857,4.589-6.693,4.911-10.638
	c0.353-4.364-0.74-8.137-3.166-10.911C727.676,235.442,724.01,233.82,719.542,233.584z M557.337,525.919
	c0.255-0.101,0.515-0.161,0.774-0.221c0.81-3.888,1.845-7.523,3.087-10.788c2.852-7.499,6.969-14.489,12.065-20.674
	c-27.643,4.11-50.134,9.984-66.919,17.511c-7.265,3.256-19.427,8.71-20.934,14.162c-0.236,0.856-0.358,2.27,1.31,4.658
	C494.755,542.068,521.154,540.338,557.337,525.919z M358.949,343.95c-10.382-4.159-18.91-12.901-22.585-23.489
	c-2.526-7.294-3.547-15.86-2.301-23.758c0.064-0.403,0.119-0.808,0.195-1.207c-0.64,0.487-1.304,0.946-1.931,1.448
	c-6.511,0.959-12.922,2.566-18.866,5.838c-2.698,1.485-5.165,3.243-7.481,5.16c-1.624,1.796-3.164,3.673-4.63,5.557
	c-5.274,6.772-10.505,14.055-18.165,17.928c-1.999,1.011-4.141,1.676-6.327,2.118c-3.411,0.691-6.939,0.695-10.37,0.059
	c-0.158-0.029-0.315-0.063-0.472-0.095c-5.826-0.2-11.505-3.359-14.585-8.345c-0.385-0.623-0.763-1.251-1.061-1.928
	c-2.517-5.729-1.572-11.024,2.529-15.341c2.697,5.81,6.238,10.786,11.98,13.976c1.454,0.808,2.99,1.46,4.572,1.972
	c1.212,0.392,2.455,0.686,3.711,0.901c3.49-2.444,6.118-6.081,8.596-9.616c0.354-0.505,0.702-1.009,1.052-1.513
	c0.365-1.995,0.47-4.036,0.239-6.037c-0.181-1.573-0.578-2.735-1.105-3.705c-1.368-2.516-3.702-3.612-6.074-6.293
	c2.992-0.594,6.061-0.549,9.003,0.053c2.601,0.533,5.088,1.523,7.323,2.974c0.167-0.21,0.333-0.422,0.501-0.63
	c5.286-8.784,12.258-12.657,20.667-17.325c5.542-3.08,11.827-6.567,18.189-11.912c17.125-14.385,23.438-30.895,30.747-50.01
	l0.885-2.309c0.797-2.078-0.231-4.385-2.286-5.171c-2.052-0.797-4.362,0.239-5.148,2.294c-4.167,10.825-17.208,16.079-29.107,20.156
	c-10.078,3.454-19.035,7.935-27.696,12.268c-4.94,2.473-10.049,5.026-15.278,7.346c-6.266,2.779-13.15,3.879-22.296,3.563
	c-0.557-0.019-1.764-0.248-3.212-0.562c-0.742,2.569-1.12,5.241-1.096,7.916c0.025,2.719,0.437,5.432,1.278,8.018
	c0.372,1.145,0.826,2.292,0.84,3.496c0.014,1.204-0.533,2.509-1.639,2.984c-1.16,0.499-2.486-0.049-3.595-0.652
	c-6.934-3.773-12.263-10.228-15.007-17.617c-0.939-2.528-1.573-5.161-1.863-7.839c-0.791,0.146-1.44,0.406-2.025,0.789
	c-1.784,1.166-3.519,2.176-5.224,3.08c-0.207,3.004-0.317,6.013-0.366,9.024c-0.091,5.493,0.048,10.99,0.48,16.467
	c-5.294-2.224-11.879-7.111-15.11-12.803c-0.792-1.396-1.389-2.838-1.709-4.304c-0.426-1.958-0.195-3.026,0.448-3.614
	c-0.227,0.006-0.458,0.032-0.684,0.032c-7.833-0.008-15.143-4.159-17.802-10.099c-2.423-5.42-0.919-12.496,3.5-16.461
	c4.382-3.928,16.248-4.964,21.533-1.886c1.85,1.082,4.196,0.511,5.35-1.256c3.417-2.854,22.826-15.322,25.337-16.437
	c4.253-1.749,9.043-3.329,14.644-4.829c0.703-0.189,2.465-0.4,4.019-0.586c6.261-0.747,10.529-1.417,12.732-3.791
	c2.32-2.504,2.387-6.988,2.457-11.736c0.026-1.744,0.057-3.721,0.241-4.6c1.007-4.782,2.756-9.424,5.205-13.793
	c4.79-8.565,12.011-15.498,20.332-19.523c7.452-3.607,15.625-5.197,24.279-6.881c4.813-0.937,9.787-1.905,14.642-3.254
	c30.762-8.543,63.031-27.893,64.342-63.383c11.328,14.745,14.632,35.294,8.496,52.846c7.484-16.819,15.283-34.096,28.594-46.812
	c7.705-7.361,17.091-12.95,27.234-16.218c5.069-1.633,10.407-2.73,14.942-5.522c4.536-2.792,8.202-7.869,7.395-13.133
	c4.654,6.399,2.827,15.76-1.983,22.043c-4.809,6.282-11.943,10.261-18.733,14.324s-13.698,8.653-17.533,15.574
	c-3.835,6.921-3.475,16.798,2.837,21.569c-0.084-11.776,11.911-20.033,23.298-23.038c11.387-3.005,23.829-3.19,33.887-9.317
	c10.723-6.532,16.646-18.534,25.193-27.732c15.617-16.803,41.178-23.574,63.065-16.706c-15.752,1.893-30.809,9.153-42.101,20.298
	c-3.528,3.482-6.916,8.15-5.783,12.976c1.683,7.172,11.286,8.527,18.594,7.595c27.519-3.512,50.774-25.867,79.057-21.174
	c6.617,1.098,13.308,2.898,19.782,4.637c7.693,2.071,15.651,4.209,23.806,5.291c9.891,1.3,19.123,0.664,27.073-1.762
	c-4.45,3.474-9.888,6.287-15.994,8.168c-22.765,7.015-48.304-0.783-69.041,12.781c-0.019,0.012-0.037,0.026-0.056,0.038
	c-2.043,3.292-2.921,7.155-1.76,10.827c0.001,0.003,0.002,0.005,0.003,0.008c6.033,3.655,18.398,6.844,25.763,8.899
	c2.595-0.513,5.183-1.12,7.77-1.622c18.053-3.501,37.14-1.476,54.057,5.734c17.775,7.576,34.87,21.021,54.01,18.376
	c-12.092,6.808-27.482,7.388-40.053,1.511c-4.278-2-8.324-4.723-12.972-5.562c-4.647-0.838-10.28,0.973-11.793,5.446
	c-0.129,0.382-0.213,0.764-0.272,1.145c5.489,3.586,10.815,7.404,15.987,11.423c3.336-0.126,6.707-0.593,10.049-0.572
	c16.366,0.104,30.036,11.748,42.588,22.252c12.552,10.503,27.635,21.075,43.795,18.487c-9.671,8.995-25.043,11.211-36.862,5.313
	c-5.404-2.697-10.047-6.881-15.729-8.929c-2.138-0.771-4.547-1.107-6.863-0.941c0.781,0.929,1.592,1.83,2.359,2.77
	c42.093,51.594,60.247,122.899,50.79,193.335c-0.016-0.895-0.035-1.79-0.042-2.686l-0.177-11.772
	c-0.233-3.915-0.629-7.82-0.939-11.733l-0.497-5.868c-0.169-1.956-0.56-3.884-0.829-5.828l-1.796-11.644
	c-3.145-15.37-6.928-30.71-12.89-45.298c-11.079-29.471-28.393-56.622-50.432-79.369c-22.152-22.566-49.059-40.396-78.374-52.252
	c-29.327-11.858-61-17.809-92.693-17.374c-31.775,0.495-63.204,8.265-91.907,21.541c-14.397,6.722-27.906,14.617-40.997,23.415
	c-6.544,4.388-12.881,9.135-19.009,14.176c-3.09,2.487-6.039,5.17-9.006,7.826c-2.861,2.791-5.758,5.536-8.45,8.522
	c-5.452,5.879-10.602,12.143-14.876,19.096c-1.16,1.665-2.085,3.508-3.114,5.269l-1.505,2.669l-1.314,2.788
	c-1.277,2.643-2.303,5.097-3.329,7.486c0.662,0.773,1.296,1.565,1.866,2.381c3.5,5.011,5.966,10.791,10.225,15.175
	c0.026,0.027,0.055,0.049,0.081,0.075c6.323,6.443,16.367,8.57,24.969,6.073c2.927-0.85,5.687-2.23,8.076-4.162
	c-0.891,3.033-2.807,5.503-5.24,7.474c-3.276,2.655-7.517,4.38-11.711,5.113c-8.627,1.506-17.759-0.066-25.387-4.37
	c5.145,2.261,6.941,9.001,5.614,14.462c-1.327,5.461-4.944,10.019-8.127,14.65c-0.932,1.356-1.831,2.773-2.643,4.231
	c-1.962,3.52-3.365,7.309-3.105,11.274c0.367,5.608,5.419,11.193,10.934,10.112c-2.786,1.125-5.846,1.418-8.823,1.034
	c-3.726-0.481-7.316-2.046-10.038-4.642c-3.002-2.863-4.838-6.837-5.305-10.954c-0.294-2.596-0.053-5.247,0.811-7.716
	c0.367-1.05,0.83-2.118,1.265-3.191c1.01-2.494,1.845-5.012,0.815-7.382c-1.799-4.135-7.793-4.19-11.894-2.316
	c-7.361,3.363-12.637,10.898-13.28,18.965c-0.407,5.096,1.054,10.27,3.877,14.524c1.646,2.481,3.75,4.653,6.231,6.305
	C362.043,345.078,360.476,344.562,358.949,343.95z M224.305,248.656c-2.288-1.866-5.47-2.83-8.391-2.371
	c-2.935,0.408-5.457,2.028-7.172,4.081c-0.691,0.825-0.69,2.054,0.05,2.88c0.811,0.905,2.203,0.981,3.108,0.171l0.064-0.056
	c1.308-1.173,2.914-1.827,4.418-1.806c1.511,0.003,2.849,0.666,3.853,1.757c1.087,1.124,1.52,2.408,1.6,3.871
	c0.045,1.431-0.442,2.82-1.197,3.692c-0.304,0.352-0.379,0.542-0.452,1.009c-0.019,0.125-0.037,0.259,0.005,0.374
	c0.236,0.409,1.609-0.066,1.928-0.141c0.776-0.182,1.543-0.404,2.303-0.641c1.912-0.594,3.912-1.215,4.264-3.464
	C229.235,254.501,227.048,250.711,224.305,248.656z M306.832,200.855c1.317-4.159,3.762-7.549,6.707-10.541
	c2.957-2.973,6.258-5.499,9.762-7.093c3.669-1.756,8.361-3.123,13.101-6.28c2.318-1.597,4.447-3.607,6.05-6.132
	c1.588-2.485,2.612-5.623,2.135-8.574c-0.09-0.542-0.402-1.053-0.902-1.371c-0.934-0.595-2.173-0.32-2.768,0.614l-0.145,0.228
	c-2.229,3.502-5.439,5.269-9.131,6.858c-3.607,1.537-8.239,2.702-13.091,5.272c-5.051,2.689-9.035,6.717-11.869,11.308
	c-2.74,4.582-4.63,10.283-3.327,15.758c0.141,0.586,0.577,1.088,1.192,1.284c0.936,0.296,1.936-0.222,2.232-1.158L306.832,200.855z
	 M355.97,186.392c-0.283-0.506-0.765-0.872-1.328-1.004c-7.154-1.697-13.373-0.498-19.027,1.04c-0.729,0.2-1.29,0.781-1.463,1.515
	c-0.174,0.737,0.067,1.508,0.63,2.011c2.25,2.016,2.88,5.672,1.435,8.326c-1.443,2.654-4.857,4.107-7.774,3.311
	c-2.914-0.794-5.114-3.783-5.01-6.803c0.031-0.869-0.485-1.663-1.292-1.985c-0.804-0.33-1.728-0.112-2.307,0.54
	c-5.192,5.815-8.793,11.578-11.009,17.613c-0.202,0.555-0.158,1.173,0.122,1.692c0.283,0.522,0.773,0.895,1.349,1.028
	c2.839,0.656,5.752,0.978,8.669,0.978c6.676,0,13.365-1.692,19.19-4.948c8.365-4.678,14.912-12.571,17.966-21.655
	C356.305,187.5,356.25,186.898,355.97,186.392z"/>
</svg>
